<svg width="34" height="57" viewBox="0 0 34 57" fill="none" xmlns="http://www.w3.org/2000/svg">
<path d="M8.94568 42.5656C8.94568 42.6285 8.94568 42.6915 8.94568 42.7544H11.9066C11.9066 42.6915 11.9066 42.5656 11.9066 42.5027C11.9066 42.4397 11.9066 42.3768 11.9066 42.3139C11.9066 41.3069 12.1586 40.3628 12.1586 39.9852C12.9146 34.2579 16.6945 31.8663 16.7575 31.8034C17.0095 32.0551 20.6634 35.0132 21.3563 40.0481C21.3563 40.4257 21.6083 41.3698 21.6083 42.3768C21.6083 42.4397 21.6083 42.5027 21.6083 42.5656C21.6083 42.6285 21.6083 42.6915 21.6083 42.6915H24.5692C24.5692 42.6285 24.5692 42.5656 24.5692 42.5027C24.5692 37.4677 22.4273 33.9432 20.4114 31.6775H20.4744C18.7104 28.0271 18.3954 23.8733 18.5844 19.8453C18.7734 15.9432 18.8994 10.9083 19.0254 7.00616C19.0884 4.8663 18.5844 2.91525 17.1355 1.21595C17.0725 1.09008 16.7575 0.838328 16.6945 0.775391C16.6945 0.775391 16.3165 1.09008 16.2535 1.21595C14.8045 2.91525 14.3005 4.92924 14.3635 7.00616C14.4895 10.9083 14.6155 15.9432 14.8045 19.8453C14.9935 23.8733 14.8045 28.0271 12.9776 31.6775C11.0246 33.9432 8.94568 37.4677 8.94568 42.5656Z" fill="white"/>
<path d="M33.5781 6.37622C33.5151 6.37622 33.4521 6.37622 33.3891 6.37622C33.2631 6.43916 33.1371 6.50209 33.0111 6.56503C31.2471 7.63496 29.7352 8.95664 28.4752 10.593C25.8923 13.8028 24.6953 17.5161 24.3173 21.607C24.1283 23.7468 23.8133 25.9496 23.5613 28.0895C23.4353 29.1594 23.3094 30.2923 23.2464 31.3622C24.3173 31.1734 25.1363 31.551 25.8923 32.2434C26.9003 33.1245 27.0262 34.572 26.2073 35.579C25.8293 36.0196 25.2623 36.3972 24.6953 36.7119C24.6953 36.7119 24.6323 36.7119 24.6323 36.7748C24.9473 37.593 25.1993 38.5371 25.3253 39.544C25.3883 39.544 25.4513 39.4811 25.5143 39.4811C27.7822 38.6629 29.1682 37.1524 29.5462 34.6979C29.8612 32.621 28.7272 30.4811 26.7743 29.3482C26.4593 29.1594 26.3333 28.9706 26.3963 28.593C26.7113 26.2014 27.0262 23.8098 27.2152 21.3552C27.4042 19.1524 28.0342 17.0755 29.0422 14.9986C29.4832 14.0545 30.8061 12.1664 30.8061 12.1664C30.8061 12.1664 30.8061 33.3133 30.8061 43.8238H19.3405V46.3413H21.2304C20.6634 49.1105 19.2775 50.9357 18.2065 52.0056V43.3832C18.3955 42.6909 18.8995 41.8098 20.4114 41.3692C20.4744 41.3692 20.5374 41.3063 20.6634 41.3063C20.6004 40.9287 20.5374 40.551 20.5374 40.3622C20.4744 39.7958 20.3484 39.2294 20.2224 38.6629C19.9704 38.7259 19.7185 38.7888 19.5925 38.8517C18.6475 39.2294 17.1355 40.4252 16.8205 40.7399C16.5055 40.4881 14.9936 39.2294 14.0486 38.8517C13.9226 38.7888 13.6706 38.7259 13.4186 38.6629C13.2926 39.1664 13.1666 39.7329 13.1036 40.3622C13.1036 40.551 13.0406 40.8657 12.9776 41.3063C13.0406 41.3063 13.1036 41.3692 13.2296 41.3692C14.7416 41.8098 15.2456 42.6909 15.4346 43.3832V52.0685C14.3636 50.9986 12.9776 49.1734 12.4107 46.4671H14.3636V43.9496H2.77192V12.2294C2.77192 12.2294 4.09489 14.1175 4.53587 15.0615C5.48085 17.0755 6.11083 19.1524 6.36282 21.4182C6.55182 23.8098 6.86681 26.2014 7.1818 28.6559C7.2448 29.0336 7.1188 29.2224 6.80381 29.4112C4.85087 30.5441 3.7169 32.6839 4.03189 34.7608C4.34688 37.1524 5.79584 38.7259 8.06378 39.544C8.12677 39.544 8.18977 39.607 8.25277 39.607C8.44177 38.6 8.63076 37.7189 8.94575 36.8378C8.94575 36.8378 8.94575 36.8378 8.88275 36.8378C8.31577 36.5231 7.74878 36.2084 7.37079 35.7049C6.55182 34.6979 6.67781 33.2503 7.68579 32.3692C8.37877 31.7399 9.26074 31.2993 10.3317 31.4881C10.2057 30.3552 10.1427 29.2853 10.0167 28.2154C9.76473 26.0755 9.44974 23.8727 9.26074 21.7329C8.94575 17.642 7.68579 13.9287 5.10286 10.7189C3.84289 9.08251 2.33094 7.76084 0.566984 6.69091C0.440988 6.62797 0.314991 6.56503 0.188995 6.5021C0.125997 6.5021 0.0629983 6.5021 0 6.5021V46.5301H9.32374C10.6467 53.1385 16.7575 56.2224 16.7575 56.2224C16.7575 56.2224 22.8684 53.3273 24.3173 46.4671H33.5781V6.37622Z" fill="white"/>
</svg>
