<svg width="204" height="56" viewBox="0 0 204 56" fill="none" xmlns="http://www.w3.org/2000/svg">
<path d="M50.2088 36.8072H34.0003V39.5H50.2088V36.8072ZM49.9402 26.0381C49.5246 25.6223 48.8504 25.6223 48.4351 26.0381L43.1555 31.3179V17.5649C43.1555 16.9764 42.6783 16.5 42.0907 16.5C41.5026 16.5 41.0261 16.9766 41.0261 17.565V31.3181L35.8176 26.1098C35.4019 25.6937 34.7279 25.6937 34.3122 26.1098C33.8959 26.5255 33.8959 27.1996 34.3122 27.6156L41.3379 34.6411C41.3622 34.6661 41.3888 34.6896 41.4159 34.7121C41.4282 34.7222 41.4411 34.7305 41.4539 34.7407C41.4691 34.7513 41.4841 34.7638 41.4992 34.7741C41.5149 34.7844 41.5303 34.7926 41.5456 34.8024C41.5598 34.8111 41.5738 34.8194 41.5886 34.8272C41.6048 34.8363 41.6209 34.8434 41.6369 34.8511C41.6527 34.8584 41.6678 34.8658 41.6829 34.8725C41.6988 34.879 41.7147 34.8842 41.7307 34.8895C41.7476 34.8957 41.7643 34.9022 41.7814 34.9072C41.7977 34.9121 41.8133 34.9156 41.8296 34.9197C41.8471 34.9234 41.8643 34.9291 41.8821 34.9324C41.9008 34.9358 41.9196 34.9377 41.9383 34.9411C41.954 34.9436 41.9694 34.9463 41.9852 34.9479C42.055 34.9548 42.1255 34.9548 42.1953 34.9479C42.2116 34.9463 42.2263 34.9436 42.2422 34.9411C42.2607 34.9377 42.28 34.9364 42.2981 34.9324C42.3157 34.929 42.3333 34.9234 42.3506 34.9197C42.3672 34.9156 42.3829 34.9121 42.3991 34.9072C42.4162 34.9022 42.4327 34.8957 42.4498 34.8895C42.4663 34.8846 42.4814 34.8795 42.4977 34.8725C42.5132 34.8658 42.5286 34.8584 42.5436 34.8511C42.5598 34.8433 42.5759 34.8361 42.5918 34.8272C42.6065 34.8194 42.6205 34.8103 42.6346 34.8024C42.6505 34.7926 42.6659 34.7845 42.6812 34.7741C42.6968 34.7638 42.7119 34.7513 42.7268 34.7407C42.7391 34.7306 42.7521 34.7224 42.7646 34.7121C42.805 34.679 42.8423 34.6412 42.8772 34.6034C42.8896 34.5925 42.9022 34.5822 42.9144 34.5705L49.9401 27.5445C50.356 27.1278 50.356 26.4537 49.9402 26.0381Z" fill="black"/>
<path d="M72.0707 34H70.102V23.9375H64.1645V34H62.1957V22.125H72.0707V34ZM79.9695 24.4688C81.1986 24.4688 82.1882 24.9167 82.9382 25.8125C83.6882 26.6875 84.0632 27.8542 84.0632 29.3125C84.0632 30.75 83.6778 31.9167 82.907 32.8125C82.157 33.7083 81.1778 34.1562 79.9695 34.1562C79.3236 34.1562 78.7299 34.0417 78.1882 33.8125C77.6674 33.5625 77.2299 33.2083 76.8757 32.75V37.125H75.0007V24.625H76.6257L76.7507 26.0938C77.1257 25.5729 77.584 25.1771 78.1257 24.9062C78.6882 24.6146 79.3028 24.4688 79.9695 24.4688ZM79.4695 32.5625C80.3028 32.5625 80.959 32.2708 81.4382 31.6875C81.9174 31.0833 82.157 30.2917 82.157 29.3125C82.157 28.3333 81.9174 27.5521 81.4382 26.9688C80.959 26.3646 80.3028 26.0625 79.4695 26.0625C78.6361 26.0625 77.9695 26.3646 77.4695 26.9688C76.9903 27.5521 76.7507 28.3333 76.7507 29.3125C76.7507 30.2917 76.9903 31.0833 77.4695 31.6875C77.9695 32.2708 78.6361 32.5625 79.4695 32.5625ZM87.1807 29.9062C87.2849 30.7396 87.587 31.3958 88.087 31.875C88.6078 32.3333 89.2745 32.5625 90.087 32.5625C91.3161 32.5625 92.2432 32.1562 92.8682 31.3438L94.1495 32.4688C93.7328 32.9688 93.1807 33.375 92.4932 33.6875C91.8265 34 91.0245 34.1562 90.087 34.1562C88.587 34.1562 87.4099 33.7083 86.5557 32.8125C85.7224 31.9167 85.3057 30.75 85.3057 29.3125C85.3057 27.875 85.7328 26.7083 86.587 25.8125C87.4411 24.9167 88.5557 24.4688 89.9307 24.4688C91.3057 24.4688 92.3995 24.9062 93.212 25.7812C94.0453 26.6562 94.462 27.8333 94.462 29.3125C94.462 29.5625 94.4411 29.7604 94.3995 29.9062H87.1807ZM89.9307 26.0312C89.2015 26.0312 88.5974 26.25 88.1182 26.6875C87.6599 27.125 87.3578 27.7188 87.212 28.4688H92.5557C92.4307 27.6979 92.139 27.1042 91.6807 26.6875C91.2224 26.25 90.639 26.0312 89.9307 26.0312ZM101.548 29.1562C102.069 29.3229 102.465 29.5938 102.736 29.9688C103.027 30.3438 103.173 30.8021 103.173 31.3438C103.173 32.1771 102.809 32.8542 102.079 33.375C101.35 33.8958 100.392 34.1562 99.2045 34.1562C98.2461 34.1562 97.4128 33.9375 96.7045 33.5C95.9961 33.0625 95.4857 32.4479 95.1732 31.6562L96.7357 30.9688C97.2357 32.0521 98.069 32.5938 99.2357 32.5938C99.8607 32.5938 100.35 32.4792 100.704 32.25C101.079 32 101.267 31.6667 101.267 31.25C101.267 30.8542 101.1 30.5417 100.767 30.3125C100.454 30.0833 100.007 29.9688 99.4232 29.9688H98.2357V28.5H99.3607C99.8607 28.5 100.246 28.3958 100.517 28.1875C100.788 27.9583 100.923 27.6562 100.923 27.2812C100.923 26.8854 100.777 26.5729 100.486 26.3438C100.194 26.1146 99.7878 26 99.267 26C98.1836 26 97.4336 26.5 97.017 27.5L95.4857 26.6875C95.819 26 96.319 25.4583 96.9857 25.0625C97.6732 24.6667 98.4545 24.4688 99.3295 24.4688C100.371 24.4688 101.194 24.7188 101.798 25.2188C102.423 25.6979 102.746 26.3542 102.767 27.1875C102.767 28.0833 102.361 28.7396 101.548 29.1562ZM105.978 29.9062C106.082 30.7396 106.384 31.3958 106.884 31.875C107.405 32.3333 108.072 32.5625 108.884 32.5625C110.114 32.5625 111.041 32.1562 111.666 31.3438L112.947 32.4688C112.53 32.9688 111.978 33.375 111.291 33.6875C110.624 34 109.822 34.1562 108.884 34.1562C107.384 34.1562 106.207 33.7083 105.353 32.8125C104.52 31.9167 104.103 30.75 104.103 29.3125C104.103 27.875 104.53 26.7083 105.384 25.8125C106.239 24.9167 107.353 24.4688 108.728 24.4688C110.103 24.4688 111.197 24.9062 112.009 25.7812C112.843 26.6562 113.259 27.8333 113.259 29.3125C113.259 29.5625 113.239 29.7604 113.197 29.9062H105.978ZM108.728 26.0312C107.999 26.0312 107.395 26.25 106.916 26.6875C106.457 27.125 106.155 27.7188 106.009 28.4688H111.353C111.228 27.6979 110.937 27.1042 110.478 26.6875C110.02 26.25 109.437 26.0312 108.728 26.0312ZM123.439 24.625V34H121.564V30.0625H117.002V34H115.127V24.625H117.002V28.375H121.564V24.625H123.439ZM133.526 26.2812H130.151V34H128.276V26.2812H124.901V24.625H133.526V26.2812ZM142.706 32.375V34C142.581 34.0417 142.362 34.0625 142.049 34.0625C141.466 34.0625 141.029 33.9479 140.737 33.7188C140.466 33.4896 140.299 33.1042 140.237 32.5625C139.904 33.0417 139.445 33.4271 138.862 33.7188C138.279 34.0104 137.643 34.1562 136.956 34.1562C136.039 34.1562 135.299 33.9062 134.737 33.4062C134.174 32.8854 133.893 32.2188 133.893 31.4062C133.893 30.3854 134.258 29.6667 134.987 29.25C135.737 28.8125 136.716 28.5 137.924 28.3125C138.716 28.2083 139.258 28.0938 139.549 27.9688C139.862 27.8438 140.018 27.6146 140.018 27.2812C140.018 26.9062 139.831 26.6042 139.456 26.375C139.102 26.1458 138.633 26.0312 138.049 26.0312C137.529 26.0312 137.018 26.1458 136.518 26.375C136.039 26.5833 135.612 26.8854 135.237 27.2812L134.081 26.0625C135.206 25 136.56 24.4688 138.143 24.4688C139.268 24.4688 140.154 24.75 140.799 25.3125C141.445 25.8542 141.768 26.6042 141.768 27.5625V31.7812C141.768 32.1771 141.966 32.375 142.362 32.375H142.706ZM137.268 32.625C137.997 32.625 138.622 32.4062 139.143 31.9688C139.685 31.5312 139.956 31.0208 139.956 30.4375V29.2188C139.81 29.3229 139.57 29.4167 139.237 29.5C138.924 29.5625 138.56 29.625 138.143 29.6875C137.352 29.8125 136.747 29.9792 136.331 30.1875C135.935 30.375 135.737 30.7396 135.737 31.2812C135.737 31.7188 135.872 32.0521 136.143 32.2812C136.414 32.5104 136.789 32.625 137.268 32.625ZM153.886 32.3438V36.1875H152.104V34H144.479V24.625H146.354V32.3438H150.792V24.625H152.667V32.3438H153.886ZM155.784 24.625H157.659V34H155.784V24.625ZM155.691 21.4375H157.753V23.3125H155.691V21.4375ZM167.621 34H165.746V30.4688H163.683L161.402 34H159.308L161.808 30.2188C161.204 29.9896 160.735 29.6562 160.402 29.2188C160.089 28.7812 159.933 28.25 159.933 27.625C159.933 26.7083 160.246 25.9792 160.871 25.4375C161.496 24.8958 162.339 24.625 163.402 24.625H167.621V34ZM165.746 29.0625V26.1875H163.589C163.027 26.1875 162.589 26.3125 162.277 26.5625C161.964 26.8125 161.808 27.1562 161.808 27.5938C161.808 28.0521 161.964 28.4167 162.277 28.6875C162.589 28.9375 163.027 29.0625 163.589 29.0625H165.746Z" fill="black"/>
<rect x="1" y="1" width="201.252" height="54" rx="27" stroke="black" stroke-width="2"/>
</svg>
