<svg width="116" height="116" viewBox="0 0 116 116" fill="none" xmlns="http://www.w3.org/2000/svg">
<path fill-rule="evenodd" clip-rule="evenodd" d="M106.766 106.766C97.5325 116 83.398 116 57.9895 116C32.581 116 18.4464 116 9.23373 106.766C0 97.5325 0 83.398 0 57.9895C0 32.581 0 18.4464 9.23373 9.23373C18.4464 0 32.5599 0 57.9895 0C83.419 0 97.5325 0 106.766 9.21269C116 18.4464 116 32.5599 116 57.9895C116 83.419 116 97.5325 106.766 106.766ZM68.2406 60.0789C69.5032 59.2969 69.5032 57.4601 68.2406 56.6782L52.6996 47.0541C51.3673 46.229 49.6467 47.1873 49.6467 48.7544V68.0026C49.6467 69.5697 51.3673 70.528 52.6996 69.7029L68.2406 60.0789Z" fill="white"/>
</svg>
